<svg width="84" height="45" viewBox="0 0 84 45" fill="none" xmlns="http://www.w3.org/2000/svg">
<path fill-rule="evenodd" clip-rule="evenodd" d="M80.304 7.47401C82.218 7.47401 83.668 6.08201 83.668 4.22601C83.668 2.31201 82.218 0.920013 80.304 0.920013C78.506 0.920013 77.056 2.31201 77.056 4.22601C77.056 6.08201 78.506 7.47401 80.304 7.47401ZM4.67198 45V4.34201H0.0319824V45H4.67198ZM20.042 45V22.438C21.144 19.364 24.16 16.812 28.046 16.812C32.454 16.812 34.832 19.48 34.832 24.294V45H39.356V23.25C39.182 16.232 35.412 12.81 29.09 12.81C24.16 12.81 20.97 15.652 20.1 16.754H19.868L18.94 13.448H15.518V45H20.042ZM71.372 13.448L60.7 45H55.48L44.634 13.448H49.564L55.712 32.356C56.698 35.372 57.394 37.982 58.032 40.65H58.264C58.8735 38.1012 59.6418 35.6053 60.5183 32.7578L60.642 32.356L66.674 13.448H71.372ZM82.856 13.448V45H78.332V13.448H82.856Z" fill="white"/>
<path fill-rule="evenodd" clip-rule="evenodd" d="M80 9C82.2091 9 84 7.20914 84 5C84 2.79086 82.2091 1 80 1C77.7909 1 76 2.79086 76 5C76 7.20914 77.7909 9 80 9Z" fill="#8578D4"/>
</svg>
