<svg width="120" height="120" viewBox="0 0 120 120" fill="none" xmlns="http://www.w3.org/2000/svg">
<path d="M110.411 119.999H9.58894C5.83475 119.999 2.79141 116.956 2.79141 113.202V46.8683C2.79141 43.1141 5.83475 40.0708 9.58894 40.0708H110.411C114.165 40.0708 117.208 43.1141 117.208 46.8683V113.202C117.208 116.956 114.165 119.999 110.411 119.999Z" fill="#FFFCF3"/>
<path d="M110.411 112.076H9.58892C5.83473 112.076 2.79163 109.033 2.79163 105.279V113.202C2.79163 116.956 5.83496 119.999 9.58892 119.999H110.411C114.165 119.999 117.208 116.956 117.208 113.202V105.279C117.208 109.033 114.165 112.076 110.411 112.076Z" fill="#FFF8E6"/>
<path d="M110.411 40.071H97.9091C101.663 40.071 104.707 43.1143 104.707 46.8683V113.201C104.707 116.956 101.663 119.999 97.9091 119.999H110.411C114.165 119.999 117.209 116.956 117.209 113.201V46.8683C117.208 43.1143 114.165 40.071 110.411 40.071Z" fill="#FFF8E6"/>
<path d="M60 71.3593L4.95071 118.169C6.16547 119.303 7.79554 119.999 9.58896 119.999H110.411C112.204 119.999 113.834 119.303 115.049 118.169L60 71.3593Z" fill="#FFF8E6"/>
<path d="M107.885 112.076L104.706 109.374C104.706 110.866 103.497 112.076 102.004 112.076H12.1155L4.95068 118.169L4.95092 118.169C5.02404 118.237 5.09904 118.304 5.17521 118.369C5.1792 118.372 5.18318 118.376 5.1874 118.38C5.26052 118.442 5.33529 118.502 5.41099 118.561C5.41873 118.567 5.42646 118.574 5.4342 118.58C5.50685 118.636 5.58115 118.691 5.65615 118.744C5.6681 118.752 5.67982 118.761 5.69154 118.769C5.76349 118.82 5.83661 118.869 5.91068 118.916C5.92661 118.927 5.94279 118.937 5.95896 118.947C6.02997 118.992 6.10192 119.036 6.17458 119.078C6.19497 119.09 6.21536 119.102 6.23575 119.114C6.3056 119.153 6.37638 119.192 6.44786 119.229C6.47223 119.242 6.49684 119.255 6.52145 119.267C6.59012 119.302 6.65926 119.336 6.72911 119.368C6.75817 119.382 6.78747 119.395 6.81653 119.408C6.88356 119.438 6.95082 119.467 7.01903 119.495C7.05254 119.509 7.08629 119.522 7.11981 119.535C7.18496 119.56 7.25012 119.585 7.31621 119.609C7.35465 119.622 7.39356 119.635 7.43223 119.648C7.4948 119.669 7.55762 119.69 7.62113 119.709C7.66449 119.722 7.70832 119.734 7.75215 119.746C7.81238 119.763 7.87261 119.78 7.93355 119.796C7.9823 119.808 8.03152 119.818 8.0805 119.83C8.13769 119.842 8.19464 119.856 8.2523 119.868C8.30691 119.878 8.36198 119.887 8.41706 119.897C8.47073 119.906 8.52394 119.917 8.57784 119.925C8.63925 119.934 8.70159 119.941 8.76347 119.948C8.81198 119.954 8.86026 119.961 8.90925 119.966C8.98331 119.973 9.05807 119.978 9.1326 119.983C9.17034 119.986 9.20784 119.989 9.24581 119.991C9.35924 119.997 9.47338 120 9.58822 120H97.9094C97.9089 120 97.9087 120 97.9082 120H110.41C110.525 120 110.639 119.997 110.752 119.991C110.792 119.989 110.831 119.985 110.87 119.983C110.944 119.978 111.017 119.973 111.089 119.966C111.134 119.962 111.179 119.955 111.223 119.95C111.227 119.949 111.231 119.949 111.235 119.948H111.235C111.236 119.948 111.237 119.948 111.238 119.948C111.299 119.94 111.36 119.934 111.421 119.925C111.454 119.92 111.487 119.914 111.52 119.908C111.54 119.904 111.561 119.901 111.582 119.897H111.582C111.582 119.897 111.583 119.897 111.584 119.897C111.638 119.888 111.692 119.879 111.746 119.868C111.805 119.856 111.862 119.843 111.92 119.83C111.969 119.819 112.017 119.808 112.065 119.796C112.097 119.788 112.128 119.779 112.16 119.771C112.189 119.763 112.218 119.755 112.247 119.747C112.252 119.745 112.257 119.744 112.262 119.742C112.301 119.732 112.339 119.721 112.377 119.71C112.441 119.691 112.504 119.67 112.567 119.648C112.606 119.636 112.645 119.623 112.683 119.609C112.749 119.586 112.814 119.561 112.88 119.535C112.913 119.522 112.947 119.509 112.98 119.496C113.049 119.468 113.116 119.438 113.183 119.408C113.212 119.396 113.241 119.383 113.27 119.369C113.34 119.336 113.409 119.302 113.478 119.268C113.503 119.255 113.527 119.243 113.551 119.23C113.623 119.193 113.694 119.154 113.764 119.114C113.784 119.103 113.804 119.091 113.825 119.079C113.852 119.063 113.878 119.046 113.906 119.03C113.951 119.003 113.996 118.976 114.04 118.948C114.057 118.938 114.072 118.927 114.089 118.917C114.163 118.869 114.236 118.82 114.308 118.77C114.312 118.767 114.316 118.764 114.32 118.761C114.328 118.756 114.335 118.75 114.343 118.745C114.418 118.691 114.492 118.637 114.565 118.58C114.573 118.575 114.581 118.568 114.588 118.562C114.604 118.55 114.62 118.536 114.636 118.523C114.695 118.476 114.755 118.429 114.812 118.38C114.814 118.378 114.817 118.376 114.819 118.374C114.821 118.373 114.822 118.371 114.824 118.37C114.9 118.305 114.975 118.238 115.048 118.17L115.049 118.169L107.885 112.076Z" fill="#FFF8E6"/>
<path d="M63.7296 87.3565L115.201 42.0465C113.972 40.8257 112.28 40.071 110.411 40.071H9.58891C7.71978 40.071 6.02737 40.8257 4.79855 42.0465L56.2702 87.3565C58.4025 89.2336 61.5975 89.2336 63.7296 87.3565Z" fill="#FDDE82"/>
<path d="M56.2704 87.3565C58.4027 89.2336 61.5975 89.2336 63.7298 87.3565L102.82 52.9458V4.09731C102.82 1.83444 100.986 0 98.7227 0H21.2773C19.0145 0 17.18 1.83444 17.18 4.09731V52.9458L56.2704 87.3565Z" fill="#FAFAFA"/>
<path d="M98.7227 0H86.6133C88.8762 0 90.7106 1.83444 90.7106 4.09731V52.9458L53.9454 85.31L56.2704 87.3565C58.4027 89.2336 61.5975 89.2336 63.7298 87.3565L102.82 52.9458V4.09731C102.82 1.83444 100.986 0 98.7227 0Z" fill="white"/>
<path d="M33.6403 44.8002H86.3594C87.3131 44.8002 88.0861 44.0272 88.0861 43.0736C88.0861 42.1199 87.3131 41.3469 86.3594 41.3469H33.6403C32.6866 41.3469 31.9136 42.1199 31.9136 43.0736C31.9136 44.0272 32.6868 44.8002 33.6403 44.8002Z" fill="#FDDE82"/>
<path d="M86.3597 54.5634H33.6403C32.6866 54.5634 31.9136 55.3364 31.9136 56.2901C31.9136 57.2437 32.6866 58.0167 33.6403 58.0167H86.3594C87.3131 58.0167 88.0861 57.2437 88.0861 56.2901C88.0861 55.3364 87.3133 54.5634 86.3597 54.5634Z" fill="#FDDE82"/>
<path d="M66.0829 8.70999C63.6124 8.70999 61.413 9.87061 60 11.6762C58.587 9.87061 56.3876 8.70999 53.9171 8.70999C49.6536 8.70999 46.1973 12.1663 46.1973 16.4298C46.1973 26.1291 60 31.53 60 31.53C60 31.53 73.8027 26.1288 73.8027 16.4298C73.8027 12.1663 70.3464 8.70999 66.0829 8.70999Z" fill="#FDDE82"/>
<path d="M66.28 8.06125C63.7293 8.06125 61.4587 9.2596 60 11.1236V31.6211C60 31.6211 74.2501 26.0447 74.2501 16.0313C74.2504 11.6296 70.6818 8.06125 66.28 8.06125Z" fill="#FDDE82"/>
</svg>
